<?xml version="1.0" encoding="UTF-8"?>
<svg width="512" height="512" viewBox="0 0 512 512" xmlns="http://www.w3.org/2000/svg">
  <defs>
    <!-- Gradient definitions -->
    <radialGradient id="backgroundGradient" cx="50%" cy="30%" r="70%">
      <stop offset="0%" style="stop-color:#2c2c2c;stop-opacity:1" />
      <stop offset="100%" style="stop-color:#1a1a1a;stop-opacity:1" />
    </radialGradient>
    
    <linearGradient id="racketGradient" x1="0%" y1="0%" x2="100%" y2="100%">
      <stop offset="0%" style="stop-color:#C9FF00;stop-opacity:1" />
      <stop offset="50%" style="stop-color:#A8D600;stop-opacity:1" />
      <stop offset="100%" style="stop-color:#8BC34A;stop-opacity:1" />
    </linearGradient>
    
    <linearGradient id="handleGradient" x1="0%" y1="0%" x2="100%" y2="100%">
      <stop offset="0%" style="stop-color:#666666;stop-opacity:1" />
      <stop offset="50%" style="stop-color:#4a4a4a;stop-opacity:1" />
      <stop offset="100%" style="stop-color:#333333;stop-opacity:1" />
    </linearGradient>
    
    <!-- Shadow filter -->
    <filter id="dropShadow" x="-50%" y="-50%" width="200%" height="200%">
      <feDropShadow dx="2" dy="4" stdDeviation="3" flood-color="#000000" flood-opacity="0.3"/>
    </filter>
  </defs>
  
  <!-- Background -->
  <circle cx="256" cy="256" r="256" fill="url(#backgroundGradient)"/>
  
  <!-- Outer ring for app border -->
  <circle cx="256" cy="256" r="240" fill="none" stroke="#C9FF00" stroke-width="3" opacity="0.3"/>
  
  <!-- Squash racket design -->
  <g transform="translate(256, 256) rotate(-15)" filter="url(#dropShadow)">
    
    <!-- Racket head (outer frame) -->
    <ellipse cx="0" cy="-80" rx="65" ry="85" fill="none" stroke="url(#racketGradient)" stroke-width="8"/>
    
    <!-- Inner racket frame -->
    <ellipse cx="0" cy="-80" rx="55" ry="75" fill="none" stroke="url(#racketGradient)" stroke-width="3" opacity="0.7"/>
    
    <!-- Racket strings (horizontal) -->
    <g stroke="#C9FF00" stroke-width="1.5" opacity="0.6">
      <line x1="-40" y1="-120" x2="40" y2="-120"/>
      <line x1="-45" y1="-105" x2="45" y2="-105"/>
      <line x1="-50" y1="-90" x2="50" y2="-90"/>
      <line x1="-52" y1="-75" x2="52" y2="-75"/>
      <line x1="-52" y1="-60" x2="52" y2="-60"/>
      <line x1="-50" y1="-45" x2="50" y2="-45"/>
      <line x1="-45" y1="-30" x2="45" y2="-30"/>
      <line x1="-35" y1="-15" x2="35" y2="-15"/>
    </g>
    
    <!-- Racket strings (vertical) -->
    <g stroke="#C9FF00" stroke-width="1.5" opacity="0.6">
      <line x1="-30" y1="-150" x2="-30" y2="-10"/>
      <line x1="-15" y1="-160" x2="-15" y2="-5"/>
      <line x1="0" y1="-165" x2="0" y2="0"/>
      <line x1="15" y1="-160" x2="15" y2="-5"/>
      <line x1="30" y1="-150" x2="30" y2="-10"/>
    </g>
    
    <!-- Racket handle -->
    <rect x="-12" y="10" width="24" height="120" rx="12" ry="12" fill="url(#handleGradient)"/>
    
    <!-- Handle grip texture -->
    <g stroke="#999999" stroke-width="1" opacity="0.4">
      <line x1="-8" y1="20" x2="8" y2="20"/>
      <line x1="-8" y1="35" x2="8" y2="35"/>
      <line x1="-8" y1="50" x2="8" y2="50"/>
      <line x1="-8" y1="65" x2="8" y2="65"/>
      <line x1="-8" y1="80" x2="8" y2="80"/>
      <line x1="-8" y1="95" x2="8" y2="95"/>
      <line x1="-8" y1="110" x2="8" y2="110"/>
    </g>
    
    <!-- Handle end cap -->
    <circle cx="0" cy="135" r="15" fill="url(#handleGradient)"/>
    <circle cx="0" cy="135" r="10" fill="none" stroke="#C9FF00" stroke-width="2" opacity="0.8"/>
    
    <!-- Squash ball -->
    <circle cx="45" cy="-45" r="8" fill="#C9FF00" opacity="0.9"/>
    <circle cx="45" cy="-45" r="6" fill="none" stroke="#1a1a1a" stroke-width="1"/>
    
    <!-- Ball motion trail -->
    <g opacity="0.3">
      <circle cx="35" cy="-35" r="3" fill="#C9FF00"/>
      <circle cx="25" cy="-25" r="2" fill="#C9FF00"/>
      <circle cx="15" cy="-15" r="1" fill="#C9FF00"/>
    </g>
  </g>
  
  <!-- App name subtitle (optional) -->
  <text x="256" y="450" text-anchor="middle" font-family="Arial, sans-serif" font-size="24" font-weight="bold" fill="#C9FF00" opacity="0.8">SQUASH</text>
  
  <!-- Corner accent -->
  <path d="M 400 100 Q 420 80 440 100 Q 420 120 400 100" fill="#C9FF00" opacity="0.2"/>
  
</svg>